<svg width="906.2040938499077" height="1883.5635565298214" viewBox="0 0 906.2040938499077 1883.5635565298214" class="keymap" xmlns="http://www.w3.org/2000/svg" xmlns:xlink="http://www.w3.org/1999/xlink">
<style>/* inherit to force styles through use tags*/
svg path {
    fill: inherit;
}
/* font and background color specifications */
svg.keymap {
    font-family: SFMono-Regular,Consolas,Liberation Mono,Menlo,monospace;
    font-size: 14px;
    font-kerning: normal;
    text-rendering: optimizeLegibility;
    fill: #24292e;
}

/* default key styling */
rect.key {
    fill: #f6f8fa;
    stroke: #c9cccf;
    stroke-width: 1;
}

/* color accent for combo boxes */
rect.combo {
    fill: #cdf;
}

/* color accent for held keys */
rect.held, rect.combo.held {
    fill: #fdd;
}

/* color accent for ghost (optional) keys */
rect.ghost, rect.combo.ghost {
    fill: #ddd;
}

text {
    text-anchor: middle;
    dominant-baseline: middle;
}

/* styling for layer labels */
text.label {
    font-weight: bold;
    text-anchor: start;
    stroke: white;
    stroke-width: 2;
    paint-order: stroke;
}

/* styling for combo tap, and key hold/shifted label text */
text.combo, text.hold, text.shifted {
    font-size: 11px;
}

text.hold {
    text-anchor: middle;
    dominant-baseline: auto;
}

text.shifted {
    text-anchor: middle;
    dominant-baseline: hanging;
}

/* styling for hold/shifted label text in combo box */
text.combo.hold, text.combo.shifted {
    font-size: 8px;
}

/* lighter symbol for transparent keys */
text.trans {
    fill: #7b7e81;
}

/* styling for combo dendrons */
path.combo {
    stroke-width: 1;
    stroke: gray;
    fill: none;
}

/* Start Tabler Icons Cleanup */
/* cannot use height/width with glyphs */
.icon-tabler > path {
    fill: inherit;
    stroke: inherit;
}
/* hide tabler's default box */
.icon-tabler > path[stroke="none"][fill="none"] {
    visibility: collapse;
}
/* End Tabler Icons Cleanup */
</style>
<g class="layer-base">
<text x="30.0" y="28.0" class="label">base:</text>
<g transform="rotate(-10.0, 103.10757461708434, 169.05913785102535)">
<rect rx="6.0" ry="6.0" x="75.45557461708434" y="143.05913785102535" width="55.303999999999995" height="52.0" class="key"/>
<text x="103.10757461708434" y="169.05913785102535" class="tap">Q</text>
</g>
<g transform="rotate(-4.0, 169.6360682065927, 117.88195318126483)">
<rect rx="6.0" ry="6.0" x="141.98406820659272" y="91.88195318126483" width="55.303999999999995" height="52.0" class="key"/>
<text x="169.6360682065927" y="117.88195318126483" class="tap">W</text>
</g>
<rect rx="6.0" ry="6.0" x="209.8" y="58.0" width="55.303999999999995" height="52.0" class="key"/>
<text x="237.452" y="84.0" class="tap">E</text>
<rect rx="6.0" ry="6.0" x="269.104" y="85.776" width="55.303999999999995" height="52.0" class="key"/>
<text x="296.756" y="111.776" class="tap">R</text>
<rect rx="6.0" ry="6.0" x="328.352" y="94.736" width="55.303999999999995" height="52.0" class="key"/>
<text x="356.00399999999996" y="120.736" class="tap">T</text>
<rect rx="6.0" ry="6.0" x="518.192" y="94.736" width="55.303999999999995" height="52.0" class="key"/>
<text x="545.844" y="120.736" class="tap">Y</text>
<rect rx="6.0" ry="6.0" x="577.496" y="85.776" width="55.303999999999995" height="52.0" class="key"/>
<text x="605.148" y="111.776" class="tap">U</text>
<rect rx="6.0" ry="6.0" x="636.8000000000001" y="58.0" width="55.303999999999995" height="52.0" class="key"/>
<text x="664.4520000000001" y="84.0" class="tap">I</text>
<g transform="rotate(4.0, 732.0440682065927, 117.93404681873515)">
<rect rx="6.0" ry="6.0" x="704.3920682065926" y="91.93404681873515" width="55.303999999999995" height="52.0" class="key"/>
<text x="732.0440682065927" y="117.93404681873515" class="tap">O</text>
</g>
<g transform="rotate(10.0, 798.7964253829157, 169.11513785102534)">
<rect rx="6.0" ry="6.0" x="771.1444253829156" y="143.11513785102534" width="55.303999999999995" height="52.0" class="key"/>
<text x="798.7964253829157" y="169.11513785102534" class="tap">P</text>
</g>
<g transform="rotate(-10.0, 112.85157461708434, 224.21913785102532)">
<rect rx="6.0" ry="6.0" x="85.19957461708434" y="198.21913785102532" width="55.303999999999995" height="52.0" class="key"/>
<text x="112.85157461708434" y="224.21913785102532" class="tap">A</text>
<text x="112.85157461708434" y="248.21913785102532" class="hold">LGUI</text>
</g>
<g transform="rotate(-4.0, 173.49993179340728, 173.71004681873518)">
<rect rx="6.0" ry="6.0" x="145.8479317934073" y="147.71004681873518" width="55.303999999999995" height="52.0" class="key"/>
<text x="173.49993179340728" y="173.71004681873518" class="tap">S</text>
<text x="173.49993179340728" y="197.71004681873518" class="hold">LALT</text>
</g>
<rect rx="6.0" ry="6.0" x="209.8" y="114.0" width="55.303999999999995" height="52.0" class="key"/>
<text x="237.452" y="140.0" class="tap">D</text>
<text x="237.452" y="164.0" class="hold">LCTRL</text>
<rect rx="6.0" ry="6.0" x="269.104" y="141.776" width="55.303999999999995" height="52.0" class="key"/>
<text x="296.756" y="167.776" class="tap">F</text>
<text x="296.756" y="191.776" class="hold">LSHFT</text>
<rect rx="6.0" ry="6.0" x="328.352" y="150.736" width="55.303999999999995" height="52.0" class="key"/>
<text x="356.00399999999996" y="176.736" class="tap">G</text>
<rect rx="6.0" ry="6.0" x="518.192" y="151.01600000000002" width="55.303999999999995" height="52.0" class="key"/>
<text x="545.844" y="177.01600000000002" class="tap">H</text>
<rect rx="6.0" ry="6.0" x="577.496" y="141.776" width="55.303999999999995" height="52.0" class="key"/>
<text x="605.148" y="167.776" class="tap">J</text>
<text x="605.148" y="191.776" class="hold">RSHFT</text>
<rect rx="6.0" ry="6.0" x="636.8000000000001" y="114.0" width="55.303999999999995" height="52.0" class="key"/>
<text x="664.4520000000001" y="140.0" class="tap">K</text>
<text x="664.4520000000001" y="164.0" class="hold">RCTRL</text>
<g transform="rotate(4.0, 728.1239317934073, 173.76995318126484)">
<rect rx="6.0" ry="6.0" x="700.4719317934073" y="147.76995318126484" width="55.303999999999995" height="52.0" class="key"/>
<text x="728.1239317934073" y="173.76995318126484" class="tap">L</text>
<text x="728.1239317934073" y="197.76995318126484" class="hold">LALT</text>
</g>
<g transform="rotate(10.0, 789.1084253829157, 224.27513785102533)">
<rect rx="6.0" ry="6.0" x="761.4564253829157" y="198.27513785102533" width="55.303999999999995" height="52.0" class="key"/>
<text x="789.1084253829157" y="224.27513785102533" class="tap">;</text>
<text x="789.1084253829157" y="248.27513785102533" class="hold">RGUI</text>
</g>
<g transform="rotate(-10.0, 59.651574617084336, 264.9311378510253)">
<rect rx="6.0" ry="6.0" x="31.99957461708434" y="238.9311378510253" width="55.303999999999995" height="52.0" class="key"/>
<text x="59.651574617084336" y="264.9311378510253" class="tap">LSHFT</text>
</g>
<g transform="rotate(-10.0, 122.59642538291565, 279.3888621489747)">
<rect rx="6.0" ry="6.0" x="94.94442538291565" y="253.38886214897468" width="55.303999999999995" height="52.0" class="key"/>
<text x="122.59642538291565" y="279.3888621489747" class="tap">Z</text>
</g>
<g transform="rotate(-4.0, 177.42006820659273, 229.60195318126483)">
<rect rx="6.0" ry="6.0" x="149.76806820659274" y="203.60195318126483" width="55.303999999999995" height="52.0" class="key"/>
<text x="177.42006820659273" y="229.60195318126483" class="tap">X</text>
</g>
<rect rx="6.0" ry="6.0" x="209.8" y="170.0" width="55.303999999999995" height="52.0" class="key"/>
<text x="237.452" y="196.0" class="tap">C</text>
<rect rx="6.0" ry="6.0" x="269.104" y="197.776" width="55.303999999999995" height="52.0" class="key"/>
<text x="296.756" y="223.776" class="tap">V</text>
<rect rx="6.0" ry="6.0" x="328.352" y="206.73600000000002" width="55.303999999999995" height="52.0" class="key"/>
<text x="356.00399999999996" y="232.73600000000002" class="tap">B</text>
<rect rx="6.0" ry="6.0" x="518.192" y="207.016" width="55.303999999999995" height="52.0" class="key"/>
<text x="545.844" y="233.016" class="tap">N</text>
<rect rx="6.0" ry="6.0" x="577.496" y="197.776" width="55.303999999999995" height="52.0" class="key"/>
<text x="605.148" y="223.776" class="tap">M</text>
<rect rx="6.0" ry="6.0" x="636.8000000000001" y="170.0" width="55.303999999999995" height="52.0" class="key"/>
<text x="664.4520000000001" y="196.0" class="tap">,</text>
<g transform="rotate(4.0, 724.2600682065927, 229.65404681873517)">
<rect rx="6.0" ry="6.0" x="696.6080682065926" y="203.65404681873517" width="55.303999999999995" height="52.0" class="key"/>
<text x="724.2600682065927" y="229.65404681873517" class="tap">.</text>
</g>
<g transform="rotate(10.0, 779.3644253829157, 279.43513785102533)">
<rect rx="6.0" ry="6.0" x="751.7124253829156" y="253.43513785102533" width="55.303999999999995" height="52.0" class="key"/>
<text x="779.3644253829157" y="279.43513785102533" class="tap">/</text>
</g>
<g transform="rotate(10.0, 842.1404253829157, 264.9311378510253)">
<rect rx="6.0" ry="6.0" x="814.4884253829157" y="238.9311378510253" width="55.303999999999995" height="52.0" class="key"/>
<text x="842.1404253829157" y="264.9311378510253" class="tap">RSHFT</text>
</g>
<rect rx="6.0" ry="6.0" x="252.52800000000002" y="265.98400000000004" width="55.303999999999995" height="52.0" class="key"/>
<text x="280.18" y="291.98400000000004" class="tap">fn</text>
<g transform="rotate(15.0, 345.8110459231361, 301.1752469332629)">
<rect rx="6.0" ry="6.0" x="318.1590459231361" y="275.1752469332629" width="55.303999999999995" height="52.0" class="key"/>
<text x="345.8110459231361" y="301.1752469332629" class="tap">nav</text>
</g>
<g transform="rotate(30.0, 406.56824871130596, 326.438)">
<rect rx="6.0" ry="6.0" x="378.91624871130597" y="300.438" width="55.303999999999995" height="52.0" class="key"/>
<text x="406.56824871130596" y="326.438" class="tap">SPACE</text>
</g>
<g transform="rotate(-30.0, 495.38424871130593, 326.41)">
<rect rx="6.0" ry="6.0" x="467.73224871130594" y="300.41" width="55.303999999999995" height="52.0" class="key"/>
<text x="495.38424871130593" y="326.41" class="tap">RET</text>
</g>
<g transform="rotate(-15.0, 556.1489540768639, 301.1752469332629)">
<rect rx="6.0" ry="6.0" x="528.4969540768639" y="275.1752469332629" width="55.303999999999995" height="52.0" class="key"/>
<text x="556.1489540768639" y="301.1752469332629" class="tap">BSPC</text>
</g>
<rect rx="6.0" ry="6.0" x="594.072" y="265.98400000000004" width="55.303999999999995" height="52.0" class="key"/>
<text x="621.724" y="291.98400000000004" class="tap">num</text>
<rect rx="6.0" ry="6.0" x="189.54403410329635" y="87.94097659063242" width="28.0" height="26.0" class="combo"/>
<text x="203.54403410329635" y="100.94097659063242" class="combo tap">ESC</text>
<rect rx="6.0" ry="6.0" x="191.47596589670366" y="143.8550234093676" width="28.0" height="26.0" class="combo"/>
<text x="205.47596589670366" y="156.8550234093676" class="combo tap">TAB</text>
<path d="M237.08803410329637,226.68897659063242 l-39.92348110301929,1.949055311705798" class="combo"/>
<path d="M237.08803410329637,226.68897659063242 l39.92348110301926,-1.9490553117057974" class="combo"/>
<rect rx="6.0" ry="6.0" x="223.08803410329637" y="213.68897659063242" width="28.0" height="26.0" class="combo"/>
<text x="237.08803410329637" y="226.68897659063242" class="combo tap">Cut</text>
<rect rx="6.0" ry="6.0" x="193.43603410329638" y="199.80097659063242" width="28.0" height="26.0" class="combo"/>
<text x="207.43603410329638" y="212.80097659063242" class="combo tap">Copy</text>
<rect rx="6.0" ry="6.0" x="253.10399999999998" y="196.888" width="28.0" height="26.0" class="combo"/>
<text x="267.104" y="209.888" class="combo tap">Paste</text>
<rect rx="6.0" ry="6.0" x="620.8000000000001" y="84.888" width="28.0" height="26.0" class="combo"/>
<text x="634.8000000000001" y="97.888" class="combo tap">BSPC</text>
<rect rx="6.0" ry="6.0" x="684.2480341032964" y="87.96702340936758" width="28.0" height="26.0" class="combo"/>
<text x="698.2480341032964" y="100.96702340936758" class="combo tap">DEL</text>
<rect rx="6.0" ry="6.0" x="620.8000000000001" y="140.888" width="28.0" height="26.0" class="combo"/>
<text x="634.8000000000001" y="153.888" class="combo tap">&lt;</text>
<rect rx="6.0" ry="6.0" x="682.2879658967038" y="143.88497659063242" width="28.0" height="26.0" class="combo"/>
<text x="696.2879658967038" y="156.88497659063242" class="combo tap">&gt;</text>
<rect rx="6.0" ry="6.0" x="620.8000000000001" y="196.888" width="28.0" height="26.0" class="combo"/>
<text x="634.8000000000001" y="209.888" class="combo tap">[</text>
<rect rx="6.0" ry="6.0" x="680.3560341032965" y="199.8270234093676" width="28.0" height="26.0" class="combo"/>
<text x="694.3560341032965" y="212.8270234093676" class="combo tap">]</text>
<rect rx="6.0" ry="6.0" x="157.56799999999998" y="132.796" width="28.0" height="26.0" class="combo"/>
<text x="171.56799999999998" y="145.796" class="combo tap">@</text>
<rect rx="6.0" ry="6.0" x="223.452" y="99.0" width="28.0" height="26.0" class="combo"/>
<text x="237.452" y="112.0" class="combo tap">#</text>
<rect rx="6.0" ry="6.0" x="282.756" y="126.77600000000001" width="28.0" height="26.0" class="combo"/>
<text x="296.756" y="139.776" class="combo tap">$</text>
<rect rx="6.0" ry="6.0" x="342.00399999999996" y="135.736" width="28.0" height="26.0" class="combo"/>
<text x="356.00399999999996" y="148.736" class="combo tap">%</text>
<rect rx="6.0" ry="6.0" x="161.46" y="188.656" width="28.0" height="26.0" class="combo"/>
<text x="175.46" y="201.656" class="combo tap">`</text>
<rect rx="6.0" ry="6.0" x="223.452" y="155.0" width="28.0" height="26.0" class="combo"/>
<text x="237.452" y="168.0" class="combo tap">\</text>
<rect rx="6.0" ry="6.0" x="282.756" y="182.776" width="28.0" height="26.0" class="combo"/>
<text x="296.756" y="195.776" class="combo tap">=</text>
<rect rx="6.0" ry="6.0" x="342.00399999999996" y="191.736" width="28.0" height="26.0" class="combo"/>
<text x="356.00399999999996" y="204.736" class="combo tap">~</text>
<rect rx="6.0" ry="6.0" x="531.844" y="135.876" width="28.0" height="26.0" class="combo"/>
<text x="545.844" y="148.876" class="combo tap">^</text>
<rect rx="6.0" ry="6.0" x="591.148" y="126.77600000000001" width="28.0" height="26.0" class="combo"/>
<text x="605.148" y="139.776" class="combo tap">+</text>
<rect rx="6.0" ry="6.0" x="650.4520000000001" y="99.0" width="28.0" height="26.0" class="combo"/>
<text x="664.4520000000001" y="112.0" class="combo tap">*</text>
<rect rx="6.0" ry="6.0" x="716.0840000000001" y="132.85199999999998" width="28.0" height="26.0" class="combo"/>
<text x="730.0840000000001" y="145.85199999999998" class="combo tap">&amp;</text>
<rect rx="6.0" ry="6.0" x="531.844" y="192.016" width="28.0" height="26.0" class="combo"/>
<text x="545.844" y="205.016" class="combo tap">_</text>
<rect rx="6.0" ry="6.0" x="591.148" y="182.776" width="28.0" height="26.0" class="combo"/>
<text x="605.148" y="195.776" class="combo tap">-</text>
<rect rx="6.0" ry="6.0" x="650.4520000000001" y="155.0" width="28.0" height="26.0" class="combo"/>
<text x="664.4520000000001" y="168.0" class="combo tap">/</text>
<rect rx="6.0" ry="6.0" x="712.192" y="188.712" width="28.0" height="26.0" class="combo"/>
<text x="726.192" y="201.712" class="combo tap">|</text>
</g>
<g class="layer-nav">
<text x="30.0" y="393.5127113059643" class="label">nav:</text>
<g transform="rotate(-10.0, 103.10757461708434, 534.5718491569896)">
<rect rx="6.0" ry="6.0" x="75.45557461708434" y="508.57184915698963" width="55.303999999999995" height="52.0" class="key"/>
<text x="103.10757461708434" y="534.5718491569896" class="tap">TAB</text>
</g>
<g transform="rotate(-4.0, 169.6360682065927, 483.3946644872291)">
<rect rx="6.0" ry="6.0" x="141.98406820659272" y="457.3946644872291" width="55.303999999999995" height="52.0" class="key"/>
<text x="169.6360682065927" y="483.3946644872291" class="tap">CAPS</text>
</g>
<rect rx="6.0" ry="6.0" x="209.8" y="423.5127113059643" width="55.303999999999995" height="52.0" class="trans key"/>
<text x="237.452" y="449.5127113059643" class="trans tap">▽</text>
<rect rx="6.0" ry="6.0" x="269.104" y="451.2887113059643" width="55.303999999999995" height="52.0" class="trans key"/>
<text x="296.756" y="477.2887113059643" class="trans tap">▽</text>
<rect rx="6.0" ry="6.0" x="328.352" y="460.24871130596426" width="55.303999999999995" height="52.0" class="trans key"/>
<text x="356.00399999999996" y="486.24871130596426" class="trans tap">▽</text>
<rect rx="6.0" ry="6.0" x="518.192" y="460.24871130596426" width="55.303999999999995" height="52.0" class="key"/>
<text x="545.844" y="486.24871130596426" class="tap">INS</text>
<rect rx="6.0" ry="6.0" x="577.496" y="451.2887113059643" width="55.303999999999995" height="52.0" class="key"/>
<text x="605.148" y="477.2887113059643" class="tap">HOME</text>
<rect rx="6.0" ry="6.0" x="636.8000000000001" y="423.5127113059643" width="55.303999999999995" height="52.0" class="key"/>
<text x="664.4520000000001" y="449.5127113059643" class="tap">UP</text>
<g transform="rotate(4.0, 732.0440682065927, 483.44675812469944)">
<rect rx="6.0" ry="6.0" x="704.3920682065926" y="457.44675812469944" width="55.303999999999995" height="52.0" class="key"/>
<text x="732.0440682065927" y="483.44675812469944" class="tap">
<tspan x="732.0440682065927" dy="-0.6em">PG</tspan><tspan x="732.0440682065927" dy="1.2em">UP</tspan></text>
</g>
<g transform="rotate(10.0, 798.7964253829157, 534.6278491569897)">
<rect rx="6.0" ry="6.0" x="771.1444253829156" y="508.62784915698967" width="55.303999999999995" height="52.0" class="trans key"/>
<text x="798.7964253829157" y="534.6278491569897" class="trans tap">▽</text>
</g>
<g transform="rotate(-10.0, 112.85157461708434, 589.7318491569896)">
<rect rx="6.0" ry="6.0" x="85.19957461708434" y="563.7318491569896" width="55.303999999999995" height="52.0" class="key"/>
<text x="112.85157461708434" y="589.7318491569896" class="tap">LGUI</text>
<text x="112.85157461708434" y="613.7318491569896" class="hold">sticky</text>
</g>
<g transform="rotate(-4.0, 173.49993179340728, 539.2227581246995)">
<rect rx="6.0" ry="6.0" x="145.8479317934073" y="513.2227581246995" width="55.303999999999995" height="52.0" class="key"/>
<text x="173.49993179340728" y="539.2227581246995" class="tap">LALT</text>
<text x="173.49993179340728" y="563.2227581246995" class="hold">sticky</text>
</g>
<rect rx="6.0" ry="6.0" x="209.8" y="479.5127113059643" width="55.303999999999995" height="52.0" class="key"/>
<text x="237.452" y="505.5127113059643" class="tap">LCTRL</text>
<text x="237.452" y="529.5127113059643" class="hold">sticky</text>
<rect rx="6.0" ry="6.0" x="269.104" y="507.2887113059643" width="55.303999999999995" height="52.0" class="key"/>
<text x="296.756" y="533.2887113059643" class="tap">LSHFT</text>
<text x="296.756" y="557.2887113059643" class="hold">sticky</text>
<rect rx="6.0" ry="6.0" x="328.352" y="516.2487113059642" width="55.303999999999995" height="52.0" class="trans key"/>
<text x="356.00399999999996" y="542.2487113059642" class="trans tap">▽</text>
<rect rx="6.0" ry="6.0" x="518.192" y="516.5287113059643" width="55.303999999999995" height="52.0" class="key"/>
<text x="545.844" y="542.5287113059643" class="tap">DEL</text>
<rect rx="6.0" ry="6.0" x="577.496" y="507.2887113059643" width="55.303999999999995" height="52.0" class="key"/>
<text x="605.148" y="533.2887113059643" class="tap">LEFT</text>
<rect rx="6.0" ry="6.0" x="636.8000000000001" y="479.5127113059643" width="55.303999999999995" height="52.0" class="key"/>
<text x="664.4520000000001" y="505.5127113059643" class="tap">DOWN</text>
<g transform="rotate(4.0, 728.1239317934073, 539.2826644872291)">
<rect rx="6.0" ry="6.0" x="700.4719317934073" y="513.2826644872291" width="55.303999999999995" height="52.0" class="key"/>
<text x="728.1239317934073" y="539.2826644872291" class="tap">RIGHT</text>
</g>
<g transform="rotate(10.0, 789.1084253829157, 589.7878491569896)">
<rect rx="6.0" ry="6.0" x="761.4564253829157" y="563.7878491569896" width="55.303999999999995" height="52.0" class="trans key"/>
<text x="789.1084253829157" y="589.7878491569896" class="trans tap">▽</text>
</g>
<g transform="rotate(-10.0, 59.651574617084336, 630.4438491569896)">
<rect rx="6.0" ry="6.0" x="31.99957461708434" y="604.4438491569896" width="55.303999999999995" height="52.0" class="trans key"/>
<text x="59.651574617084336" y="630.4438491569896" class="trans tap">▽</text>
</g>
<g transform="rotate(-10.0, 122.59642538291565, 644.9015734549389)">
<rect rx="6.0" ry="6.0" x="94.94442538291565" y="618.9015734549389" width="55.303999999999995" height="52.0" class="trans key"/>
<text x="122.59642538291565" y="644.9015734549389" class="trans tap">▽</text>
</g>
<g transform="rotate(-4.0, 177.42006820659273, 595.1146644872291)">
<rect rx="6.0" ry="6.0" x="149.76806820659274" y="569.1146644872291" width="55.303999999999995" height="52.0" class="trans key"/>
<text x="177.42006820659273" y="595.1146644872291" class="trans tap">▽</text>
</g>
<rect rx="6.0" ry="6.0" x="209.8" y="535.5127113059643" width="55.303999999999995" height="52.0" class="trans key"/>
<text x="237.452" y="561.5127113059643" class="trans tap">▽</text>
<rect rx="6.0" ry="6.0" x="269.104" y="563.2887113059643" width="55.303999999999995" height="52.0" class="trans key"/>
<text x="296.756" y="589.2887113059643" class="trans tap">▽</text>
<rect rx="6.0" ry="6.0" x="328.352" y="572.2487113059643" width="55.303999999999995" height="52.0" class="trans key"/>
<text x="356.00399999999996" y="598.2487113059643" class="trans tap">▽</text>
<rect rx="6.0" ry="6.0" x="518.192" y="572.5287113059643" width="55.303999999999995" height="52.0" class="trans key"/>
<text x="545.844" y="598.5287113059643" class="trans tap">▽</text>
<rect rx="6.0" ry="6.0" x="577.496" y="563.2887113059643" width="55.303999999999995" height="52.0" class="key"/>
<text x="605.148" y="589.2887113059643" class="tap">END</text>
<rect rx="6.0" ry="6.0" x="636.8000000000001" y="535.5127113059643" width="55.303999999999995" height="52.0" class="trans key"/>
<text x="664.4520000000001" y="561.5127113059643" class="trans tap">▽</text>
<g transform="rotate(4.0, 724.2600682065927, 595.1667581246994)">
<rect rx="6.0" ry="6.0" x="696.6080682065926" y="569.1667581246994" width="55.303999999999995" height="52.0" class="key"/>
<text x="724.2600682065927" y="595.1667581246994" class="tap">
<tspan x="724.2600682065927" dy="-0.6em">PG</tspan><tspan x="724.2600682065927" dy="1.2em">DN</tspan></text>
</g>
<g transform="rotate(10.0, 779.3644253829157, 644.9478491569896)">
<rect rx="6.0" ry="6.0" x="751.7124253829156" y="618.9478491569896" width="55.303999999999995" height="52.0" class="trans key"/>
<text x="779.3644253829157" y="644.9478491569896" class="trans tap">▽</text>
</g>
<g transform="rotate(10.0, 842.1404253829157, 630.4438491569896)">
<rect rx="6.0" ry="6.0" x="814.4884253829157" y="604.4438491569896" width="55.303999999999995" height="52.0" class="trans key"/>
<text x="842.1404253829157" y="630.4438491569896" class="trans tap">▽</text>
</g>
<rect rx="6.0" ry="6.0" x="252.52800000000002" y="631.4967113059643" width="55.303999999999995" height="52.0" class="key"/>
<text x="280.18" y="657.4967113059643" class="tap">
<tspan x="280.18" dy="-0.6em">BT</tspan><tspan x="280.18" dy="1.2em">CLR</tspan></text>
<g transform="rotate(15.0, 345.8110459231361, 666.6879582392271)">
<rect rx="6.0" ry="6.0" x="318.1590459231361" y="640.6879582392271" width="55.303999999999995" height="52.0" class="held key"/>
</g>
<g transform="rotate(30.0, 406.56824871130596, 691.9507113059642)">
<rect rx="6.0" ry="6.0" x="378.91624871130597" y="665.9507113059642" width="55.303999999999995" height="52.0" class="trans key"/>
<text x="406.56824871130596" y="691.9507113059642" class="trans tap">▽</text>
</g>
<g transform="rotate(-30.0, 495.38424871130593, 691.9227113059643)">
<rect rx="6.0" ry="6.0" x="467.73224871130594" y="665.9227113059643" width="55.303999999999995" height="52.0" class="trans key"/>
<text x="495.38424871130593" y="691.9227113059643" class="trans tap">▽</text>
</g>
<g transform="rotate(-15.0, 556.1489540768639, 666.6879582392271)">
<rect rx="6.0" ry="6.0" x="528.4969540768639" y="640.6879582392271" width="55.303999999999995" height="52.0" class="trans key"/>
<text x="556.1489540768639" y="666.6879582392271" class="trans tap">▽</text>
</g>
<rect rx="6.0" ry="6.0" x="594.072" y="631.4967113059643" width="55.303999999999995" height="52.0" class="trans key"/>
<text x="621.724" y="657.4967113059643" class="trans tap">▽</text>
<rect rx="6.0" ry="6.0" x="189.54403410329635" y="453.4536878965967" width="28.0" height="26.0" class="combo"/>
<text x="203.54403410329635" y="466.4536878965967" class="combo tap">ESC</text>
<rect rx="6.0" ry="6.0" x="191.47596589670366" y="509.36773471533184" width="28.0" height="26.0" class="combo"/>
<text x="205.47596589670366" y="522.3677347153318" class="combo tap">TAB</text>
<path d="M237.08803410329637,592.2016878965967 l-39.92348110301929,1.949055311705798" class="combo"/>
<path d="M237.08803410329637,592.2016878965967 l39.92348110301926,-1.9490553117057974" class="combo"/>
<rect rx="6.0" ry="6.0" x="223.08803410329637" y="579.2016878965967" width="28.0" height="26.0" class="combo"/>
<text x="237.08803410329637" y="592.2016878965967" class="combo tap">Cut</text>
<rect rx="6.0" ry="6.0" x="193.43603410329638" y="565.3136878965967" width="28.0" height="26.0" class="combo"/>
<text x="207.43603410329638" y="578.3136878965967" class="combo tap">Copy</text>
<rect rx="6.0" ry="6.0" x="253.10399999999998" y="562.4007113059643" width="28.0" height="26.0" class="combo"/>
<text x="267.104" y="575.4007113059643" class="combo tap">Paste</text>
<rect rx="6.0" ry="6.0" x="620.8000000000001" y="450.40071130596425" width="28.0" height="26.0" class="combo"/>
<text x="634.8000000000001" y="463.40071130596425" class="combo tap">BSPC</text>
<rect rx="6.0" ry="6.0" x="684.2480341032964" y="453.47973471533186" width="28.0" height="26.0" class="combo"/>
<text x="698.2480341032964" y="466.47973471533186" class="combo tap">DEL</text>
<rect rx="6.0" ry="6.0" x="620.8000000000001" y="506.40071130596425" width="28.0" height="26.0" class="combo"/>
<text x="634.8000000000001" y="519.4007113059643" class="combo tap">&lt;</text>
<rect rx="6.0" ry="6.0" x="682.2879658967038" y="509.3976878965967" width="28.0" height="26.0" class="combo"/>
<text x="696.2879658967038" y="522.3976878965967" class="combo tap">&gt;</text>
<rect rx="6.0" ry="6.0" x="620.8000000000001" y="562.4007113059643" width="28.0" height="26.0" class="combo"/>
<text x="634.8000000000001" y="575.4007113059643" class="combo tap">{</text>
<rect rx="6.0" ry="6.0" x="680.3560341032965" y="565.3397347153318" width="28.0" height="26.0" class="combo"/>
<text x="694.3560341032965" y="578.3397347153318" class="combo tap">}</text>
<rect rx="6.0" ry="6.0" x="157.56799999999998" y="498.30871130596427" width="28.0" height="26.0" class="combo"/>
<text x="171.56799999999998" y="511.30871130596427" class="combo tap">@</text>
<rect rx="6.0" ry="6.0" x="223.452" y="464.5127113059643" width="28.0" height="26.0" class="combo"/>
<text x="237.452" y="477.5127113059643" class="combo tap">#</text>
<rect rx="6.0" ry="6.0" x="282.756" y="492.2887113059643" width="28.0" height="26.0" class="combo"/>
<text x="296.756" y="505.2887113059643" class="combo tap">$</text>
<rect rx="6.0" ry="6.0" x="342.00399999999996" y="501.2487113059642" width="28.0" height="26.0" class="combo"/>
<text x="356.00399999999996" y="514.2487113059642" class="combo tap">%</text>
<rect rx="6.0" ry="6.0" x="161.46" y="554.1687113059643" width="28.0" height="26.0" class="combo"/>
<text x="175.46" y="567.1687113059643" class="combo tap">`</text>
<rect rx="6.0" ry="6.0" x="223.452" y="520.5127113059643" width="28.0" height="26.0" class="combo"/>
<text x="237.452" y="533.5127113059643" class="combo tap">\</text>
<rect rx="6.0" ry="6.0" x="282.756" y="548.2887113059643" width="28.0" height="26.0" class="combo"/>
<text x="296.756" y="561.2887113059643" class="combo tap">=</text>
<rect rx="6.0" ry="6.0" x="342.00399999999996" y="557.2487113059642" width="28.0" height="26.0" class="combo"/>
<text x="356.00399999999996" y="570.2487113059642" class="combo tap">~</text>
<rect rx="6.0" ry="6.0" x="531.844" y="501.3887113059643" width="28.0" height="26.0" class="combo"/>
<text x="545.844" y="514.3887113059643" class="combo tap">^</text>
<rect rx="6.0" ry="6.0" x="591.148" y="492.2887113059643" width="28.0" height="26.0" class="combo"/>
<text x="605.148" y="505.2887113059643" class="combo tap">+</text>
<rect rx="6.0" ry="6.0" x="650.4520000000001" y="464.5127113059643" width="28.0" height="26.0" class="combo"/>
<text x="664.4520000000001" y="477.5127113059643" class="combo tap">*</text>
<rect rx="6.0" ry="6.0" x="716.0840000000001" y="498.36471130596425" width="28.0" height="26.0" class="combo"/>
<text x="730.0840000000001" y="511.36471130596425" class="combo tap">&amp;</text>
<rect rx="6.0" ry="6.0" x="531.844" y="557.5287113059643" width="28.0" height="26.0" class="combo"/>
<text x="545.844" y="570.5287113059643" class="combo tap">_</text>
<rect rx="6.0" ry="6.0" x="591.148" y="548.2887113059643" width="28.0" height="26.0" class="combo"/>
<text x="605.148" y="561.2887113059643" class="combo tap">-</text>
<rect rx="6.0" ry="6.0" x="650.4520000000001" y="520.5127113059643" width="28.0" height="26.0" class="combo"/>
<text x="664.4520000000001" y="533.5127113059643" class="combo tap">/</text>
<rect rx="6.0" ry="6.0" x="712.192" y="554.2247113059643" width="28.0" height="26.0" class="combo"/>
<text x="726.192" y="567.2247113059643" class="combo tap">|</text>
</g>
<g class="layer-fn">
<text x="30.0" y="759.0254226119285" class="label">fn:</text>
<g transform="rotate(-10.0, 103.10757461708434, 900.0845604629538)">
<rect rx="6.0" ry="6.0" x="75.45557461708434" y="874.0845604629538" width="55.303999999999995" height="52.0" class="key"/>
<text x="103.10757461708434" y="900.0845604629538" class="tap">F12</text>
</g>
<g transform="rotate(-4.0, 169.6360682065927, 848.9073757931934)">
<rect rx="6.0" ry="6.0" x="141.98406820659272" y="822.9073757931934" width="55.303999999999995" height="52.0" class="key"/>
<text x="169.6360682065927" y="848.9073757931934" class="tap">F7</text>
</g>
<rect rx="6.0" ry="6.0" x="209.8" y="789.0254226119285" width="55.303999999999995" height="52.0" class="key"/>
<text x="237.452" y="815.0254226119285" class="tap">F8</text>
<rect rx="6.0" ry="6.0" x="269.104" y="816.8014226119285" width="55.303999999999995" height="52.0" class="key"/>
<text x="296.756" y="842.8014226119285" class="tap">F9</text>
<rect rx="6.0" ry="6.0" x="328.352" y="825.7614226119285" width="55.303999999999995" height="52.0" class="trans key"/>
<text x="356.00399999999996" y="851.7614226119285" class="trans tap">▽</text>
<rect rx="6.0" ry="6.0" x="518.192" y="825.7614226119285" width="55.303999999999995" height="52.0" class="trans key"/>
<text x="545.844" y="851.7614226119285" class="trans tap">▽</text>
<rect rx="6.0" ry="6.0" x="577.496" y="816.8014226119285" width="55.303999999999995" height="52.0" class="trans key"/>
<text x="605.148" y="842.8014226119285" class="trans tap">▽</text>
<rect rx="6.0" ry="6.0" x="636.8000000000001" y="789.0254226119285" width="55.303999999999995" height="52.0" class="trans key"/>
<text x="664.4520000000001" y="815.0254226119285" class="trans tap">▽</text>
<g transform="rotate(4.0, 732.0440682065927, 848.9594694306637)">
<rect rx="6.0" ry="6.0" x="704.3920682065926" y="822.9594694306637" width="55.303999999999995" height="52.0" class="trans key"/>
<text x="732.0440682065927" y="848.9594694306637" class="trans tap">▽</text>
</g>
<g transform="rotate(10.0, 798.7964253829157, 900.1405604629539)">
<rect rx="6.0" ry="6.0" x="771.1444253829156" y="874.1405604629539" width="55.303999999999995" height="52.0" class="trans key"/>
<text x="798.7964253829157" y="900.1405604629539" class="trans tap">▽</text>
</g>
<g transform="rotate(-10.0, 112.85157461708434, 955.2445604629538)">
<rect rx="6.0" ry="6.0" x="85.19957461708434" y="929.2445604629538" width="55.303999999999995" height="52.0" class="key"/>
<text x="112.85157461708434" y="955.2445604629538" class="tap">F11</text>
</g>
<g transform="rotate(-4.0, 173.49993179340728, 904.7354694306637)">
<rect rx="6.0" ry="6.0" x="145.8479317934073" y="878.7354694306637" width="55.303999999999995" height="52.0" class="key"/>
<text x="173.49993179340728" y="904.7354694306637" class="tap">F4</text>
</g>
<rect rx="6.0" ry="6.0" x="209.8" y="845.0254226119285" width="55.303999999999995" height="52.0" class="key"/>
<text x="237.452" y="871.0254226119285" class="tap">F5</text>
<rect rx="6.0" ry="6.0" x="269.104" y="872.8014226119285" width="55.303999999999995" height="52.0" class="key"/>
<text x="296.756" y="898.8014226119285" class="tap">F6</text>
<rect rx="6.0" ry="6.0" x="328.352" y="881.7614226119285" width="55.303999999999995" height="52.0" class="trans key"/>
<text x="356.00399999999996" y="907.7614226119285" class="trans tap">▽</text>
<rect rx="6.0" ry="6.0" x="518.192" y="882.0414226119285" width="55.303999999999995" height="52.0" class="trans key"/>
<text x="545.844" y="908.0414226119285" class="trans tap">▽</text>
<rect rx="6.0" ry="6.0" x="577.496" y="872.8014226119285" width="55.303999999999995" height="52.0" class="trans key"/>
<text x="605.148" y="898.8014226119285" class="trans tap">▽</text>
<rect rx="6.0" ry="6.0" x="636.8000000000001" y="845.0254226119285" width="55.303999999999995" height="52.0" class="trans key"/>
<text x="664.4520000000001" y="871.0254226119285" class="trans tap">▽</text>
<g transform="rotate(4.0, 728.1239317934073, 904.7953757931933)">
<rect rx="6.0" ry="6.0" x="700.4719317934073" y="878.7953757931933" width="55.303999999999995" height="52.0" class="trans key"/>
<text x="728.1239317934073" y="904.7953757931933" class="trans tap">▽</text>
</g>
<g transform="rotate(10.0, 789.1084253829157, 955.3005604629539)">
<rect rx="6.0" ry="6.0" x="761.4564253829157" y="929.3005604629539" width="55.303999999999995" height="52.0" class="trans key"/>
<text x="789.1084253829157" y="955.3005604629539" class="trans tap">▽</text>
</g>
<g transform="rotate(-10.0, 59.651574617084336, 995.9565604629538)">
<rect rx="6.0" ry="6.0" x="31.99957461708434" y="969.9565604629538" width="55.303999999999995" height="52.0" class="trans key"/>
<text x="59.651574617084336" y="995.9565604629538" class="trans tap">▽</text>
</g>
<g transform="rotate(-10.0, 122.59642538291565, 1010.4142847609032)">
<rect rx="6.0" ry="6.0" x="94.94442538291565" y="984.4142847609032" width="55.303999999999995" height="52.0" class="key"/>
<text x="122.59642538291565" y="1010.4142847609032" class="tap">F10</text>
</g>
<g transform="rotate(-4.0, 177.42006820659273, 960.6273757931933)">
<rect rx="6.0" ry="6.0" x="149.76806820659274" y="934.6273757931933" width="55.303999999999995" height="52.0" class="key"/>
<text x="177.42006820659273" y="960.6273757931933" class="tap">F1</text>
</g>
<rect rx="6.0" ry="6.0" x="209.8" y="901.0254226119285" width="55.303999999999995" height="52.0" class="key"/>
<text x="237.452" y="927.0254226119285" class="tap">F2</text>
<rect rx="6.0" ry="6.0" x="269.104" y="928.8014226119285" width="55.303999999999995" height="52.0" class="key"/>
<text x="296.756" y="954.8014226119285" class="tap">F3</text>
<rect rx="6.0" ry="6.0" x="328.352" y="937.7614226119285" width="55.303999999999995" height="52.0" class="trans key"/>
<text x="356.00399999999996" y="963.7614226119285" class="trans tap">▽</text>
<rect rx="6.0" ry="6.0" x="518.192" y="938.0414226119285" width="55.303999999999995" height="52.0" class="trans key"/>
<text x="545.844" y="964.0414226119285" class="trans tap">▽</text>
<rect rx="6.0" ry="6.0" x="577.496" y="928.8014226119285" width="55.303999999999995" height="52.0" class="trans key"/>
<text x="605.148" y="954.8014226119285" class="trans tap">▽</text>
<rect rx="6.0" ry="6.0" x="636.8000000000001" y="901.0254226119285" width="55.303999999999995" height="52.0" class="trans key"/>
<text x="664.4520000000001" y="927.0254226119285" class="trans tap">▽</text>
<g transform="rotate(4.0, 724.2600682065927, 960.6794694306637)">
<rect rx="6.0" ry="6.0" x="696.6080682065926" y="934.6794694306637" width="55.303999999999995" height="52.0" class="trans key"/>
<text x="724.2600682065927" y="960.6794694306637" class="trans tap">▽</text>
</g>
<g transform="rotate(10.0, 779.3644253829157, 1010.4605604629539)">
<rect rx="6.0" ry="6.0" x="751.7124253829156" y="984.4605604629539" width="55.303999999999995" height="52.0" class="trans key"/>
<text x="779.3644253829157" y="1010.4605604629539" class="trans tap">▽</text>
</g>
<g transform="rotate(10.0, 842.1404253829157, 995.9565604629538)">
<rect rx="6.0" ry="6.0" x="814.4884253829157" y="969.9565604629538" width="55.303999999999995" height="52.0" class="trans key"/>
<text x="842.1404253829157" y="995.9565604629538" class="trans tap">▽</text>
</g>
<rect rx="6.0" ry="6.0" x="252.52800000000002" y="997.0094226119286" width="55.303999999999995" height="52.0" class="held key"/>
<g transform="rotate(15.0, 345.8110459231361, 1032.2006695451914)">
<rect rx="6.0" ry="6.0" x="318.1590459231361" y="1006.2006695451914" width="55.303999999999995" height="52.0" class="trans key"/>
<text x="345.8110459231361" y="1032.2006695451914" class="trans tap">▽</text>
</g>
<g transform="rotate(30.0, 406.56824871130596, 1057.4634226119285)">
<rect rx="6.0" ry="6.0" x="378.91624871130597" y="1031.4634226119285" width="55.303999999999995" height="52.0" class="trans key"/>
<text x="406.56824871130596" y="1057.4634226119285" class="trans tap">▽</text>
</g>
<g transform="rotate(-30.0, 495.38424871130593, 1057.4354226119285)">
<rect rx="6.0" ry="6.0" x="467.73224871130594" y="1031.4354226119285" width="55.303999999999995" height="52.0" class="key"/>
<text x="495.38424871130593" y="1057.4354226119285" class="tap">MUTE</text>
</g>
<g transform="rotate(-15.0, 556.1489540768639, 1032.2006695451914)">
<rect rx="6.0" ry="6.0" x="528.4969540768639" y="1006.2006695451914" width="55.303999999999995" height="52.0" class="trans key"/>
<text x="556.1489540768639" y="1032.2006695451914" class="trans tap">▽</text>
</g>
<rect rx="6.0" ry="6.0" x="594.072" y="997.0094226119286" width="55.303999999999995" height="52.0" class="trans key"/>
<text x="621.724" y="1023.0094226119286" class="trans tap">▽</text>
</g>
<g class="layer-num">
<text x="30.0" y="1124.5381339178928" class="label">num:</text>
<g transform="rotate(-10.0, 103.10757461708434, 1265.597271768918)">
<rect rx="6.0" ry="6.0" x="75.45557461708434" y="1239.597271768918" width="55.303999999999995" height="52.0" class="trans key"/>
<text x="103.10757461708434" y="1265.597271768918" class="trans tap">▽</text>
</g>
<g transform="rotate(-4.0, 169.6360682065927, 1214.4200870991576)">
<rect rx="6.0" ry="6.0" x="141.98406820659272" y="1188.4200870991576" width="55.303999999999995" height="52.0" class="key"/>
<text x="169.6360682065927" y="1214.4200870991576" class="tap">7</text>
</g>
<rect rx="6.0" ry="6.0" x="209.8" y="1154.5381339178928" width="55.303999999999995" height="52.0" class="key"/>
<text x="237.452" y="1180.5381339178928" class="tap">8</text>
<rect rx="6.0" ry="6.0" x="269.104" y="1182.3141339178928" width="55.303999999999995" height="52.0" class="key"/>
<text x="296.756" y="1208.3141339178928" class="tap">9</text>
<rect rx="6.0" ry="6.0" x="328.352" y="1191.2741339178929" width="55.303999999999995" height="52.0" class="trans key"/>
<text x="356.00399999999996" y="1217.2741339178929" class="trans tap">▽</text>
<rect rx="6.0" ry="6.0" x="518.192" y="1191.2741339178929" width="55.303999999999995" height="52.0" class="trans key"/>
<text x="545.844" y="1217.2741339178929" class="trans tap">▽</text>
<rect rx="6.0" ry="6.0" x="577.496" y="1182.3141339178928" width="55.303999999999995" height="52.0" class="trans key"/>
<text x="605.148" y="1208.3141339178928" class="trans tap">▽</text>
<rect rx="6.0" ry="6.0" x="636.8000000000001" y="1154.5381339178928" width="55.303999999999995" height="52.0" class="trans key"/>
<text x="664.4520000000001" y="1180.5381339178928" class="trans tap">▽</text>
<g transform="rotate(4.0, 732.0440682065927, 1214.472180736628)">
<rect rx="6.0" ry="6.0" x="704.3920682065926" y="1188.472180736628" width="55.303999999999995" height="52.0" class="trans key"/>
<text x="732.0440682065927" y="1214.472180736628" class="trans tap">▽</text>
</g>
<g transform="rotate(10.0, 798.7964253829157, 1265.653271768918)">
<rect rx="6.0" ry="6.0" x="771.1444253829156" y="1239.653271768918" width="55.303999999999995" height="52.0" class="trans key"/>
<text x="798.7964253829157" y="1265.653271768918" class="trans tap">▽</text>
</g>
<g transform="rotate(-10.0, 112.85157461708434, 1320.7572717689181)">
<rect rx="6.0" ry="6.0" x="85.19957461708434" y="1294.7572717689181" width="55.303999999999995" height="52.0" class="key"/>
<text x="112.85157461708434" y="1320.7572717689181" class="tap">0</text>
<text x="112.85157461708434" y="1344.7572717689181" class="hold">LGUI</text>
</g>
<g transform="rotate(-4.0, 173.49993179340728, 1270.248180736628)">
<rect rx="6.0" ry="6.0" x="145.8479317934073" y="1244.248180736628" width="55.303999999999995" height="52.0" class="key"/>
<text x="173.49993179340728" y="1270.248180736628" class="tap">4</text>
<text x="173.49993179340728" y="1294.248180736628" class="hold">LALT</text>
</g>
<rect rx="6.0" ry="6.0" x="209.8" y="1210.5381339178928" width="55.303999999999995" height="52.0" class="key"/>
<text x="237.452" y="1236.5381339178928" class="tap">5</text>
<text x="237.452" y="1260.5381339178928" class="hold">LCTRL</text>
<rect rx="6.0" ry="6.0" x="269.104" y="1238.3141339178928" width="55.303999999999995" height="52.0" class="key"/>
<text x="296.756" y="1264.3141339178928" class="tap">6</text>
<text x="296.756" y="1288.3141339178928" class="hold">LSHFT</text>
<rect rx="6.0" ry="6.0" x="328.352" y="1247.2741339178929" width="55.303999999999995" height="52.0" class="trans key"/>
<text x="356.00399999999996" y="1273.2741339178929" class="trans tap">▽</text>
<rect rx="6.0" ry="6.0" x="518.192" y="1247.5541339178928" width="55.303999999999995" height="52.0" class="trans key"/>
<text x="545.844" y="1273.5541339178928" class="trans tap">▽</text>
<rect rx="6.0" ry="6.0" x="577.496" y="1238.3141339178928" width="55.303999999999995" height="52.0" class="trans key"/>
<text x="605.148" y="1264.3141339178928" class="trans tap">▽</text>
<rect rx="6.0" ry="6.0" x="636.8000000000001" y="1210.5381339178928" width="55.303999999999995" height="52.0" class="trans key"/>
<text x="664.4520000000001" y="1236.5381339178928" class="trans tap">▽</text>
<g transform="rotate(4.0, 728.1239317934073, 1270.3080870991575)">
<rect rx="6.0" ry="6.0" x="700.4719317934073" y="1244.3080870991575" width="55.303999999999995" height="52.0" class="trans key"/>
<text x="728.1239317934073" y="1270.3080870991575" class="trans tap">▽</text>
</g>
<g transform="rotate(10.0, 789.1084253829157, 1320.8132717689182)">
<rect rx="6.0" ry="6.0" x="761.4564253829157" y="1294.8132717689182" width="55.303999999999995" height="52.0" class="trans key"/>
<text x="789.1084253829157" y="1320.8132717689182" class="trans tap">▽</text>
</g>
<g transform="rotate(-10.0, 59.651574617084336, 1361.4692717689181)">
<rect rx="6.0" ry="6.0" x="31.99957461708434" y="1335.4692717689181" width="55.303999999999995" height="52.0" class="trans key"/>
<text x="59.651574617084336" y="1361.4692717689181" class="trans tap">▽</text>
</g>
<g transform="rotate(-10.0, 122.59642538291565, 1375.9269960668673)">
<rect rx="6.0" ry="6.0" x="94.94442538291565" y="1349.9269960668673" width="55.303999999999995" height="52.0" class="trans key"/>
<text x="122.59642538291565" y="1375.9269960668673" class="trans tap">▽</text>
</g>
<g transform="rotate(-4.0, 177.42006820659273, 1326.1400870991577)">
<rect rx="6.0" ry="6.0" x="149.76806820659274" y="1300.1400870991577" width="55.303999999999995" height="52.0" class="key"/>
<text x="177.42006820659273" y="1326.1400870991577" class="tap">1</text>
</g>
<rect rx="6.0" ry="6.0" x="209.8" y="1266.5381339178928" width="55.303999999999995" height="52.0" class="key"/>
<text x="237.452" y="1292.5381339178928" class="tap">2</text>
<rect rx="6.0" ry="6.0" x="269.104" y="1294.3141339178928" width="55.303999999999995" height="52.0" class="key"/>
<text x="296.756" y="1320.3141339178928" class="tap">3</text>
<rect rx="6.0" ry="6.0" x="328.352" y="1303.2741339178929" width="55.303999999999995" height="52.0" class="trans key"/>
<text x="356.00399999999996" y="1329.2741339178929" class="trans tap">▽</text>
<rect rx="6.0" ry="6.0" x="518.192" y="1303.5541339178928" width="55.303999999999995" height="52.0" class="trans key"/>
<text x="545.844" y="1329.5541339178928" class="trans tap">▽</text>
<rect rx="6.0" ry="6.0" x="577.496" y="1294.3141339178928" width="55.303999999999995" height="52.0" class="trans key"/>
<text x="605.148" y="1320.3141339178928" class="trans tap">▽</text>
<rect rx="6.0" ry="6.0" x="636.8000000000001" y="1266.5381339178928" width="55.303999999999995" height="52.0" class="trans key"/>
<text x="664.4520000000001" y="1292.5381339178928" class="trans tap">▽</text>
<g transform="rotate(4.0, 724.2600682065927, 1326.192180736628)">
<rect rx="6.0" ry="6.0" x="696.6080682065926" y="1300.192180736628" width="55.303999999999995" height="52.0" class="trans key"/>
<text x="724.2600682065927" y="1326.192180736628" class="trans tap">▽</text>
</g>
<g transform="rotate(10.0, 779.3644253829157, 1375.973271768918)">
<rect rx="6.0" ry="6.0" x="751.7124253829156" y="1349.973271768918" width="55.303999999999995" height="52.0" class="trans key"/>
<text x="779.3644253829157" y="1375.973271768918" class="trans tap">▽</text>
</g>
<g transform="rotate(10.0, 842.1404253829157, 1361.4692717689181)">
<rect rx="6.0" ry="6.0" x="814.4884253829157" y="1335.4692717689181" width="55.303999999999995" height="52.0" class="trans key"/>
<text x="842.1404253829157" y="1361.4692717689181" class="trans tap">▽</text>
</g>
<rect rx="6.0" ry="6.0" x="252.52800000000002" y="1362.522133917893" width="55.303999999999995" height="52.0" class="key"/>
<g transform="rotate(15.0, 345.8110459231361, 1397.7133808511558)">
<rect rx="6.0" ry="6.0" x="318.1590459231361" y="1371.7133808511558" width="55.303999999999995" height="52.0" class="trans key"/>
<text x="345.8110459231361" y="1397.7133808511558" class="trans tap">▽</text>
</g>
<g transform="rotate(30.0, 406.56824871130596, 1422.9761339178926)">
<rect rx="6.0" ry="6.0" x="378.91624871130597" y="1396.9761339178926" width="55.303999999999995" height="52.0" class="trans key"/>
<text x="406.56824871130596" y="1422.9761339178926" class="trans tap">▽</text>
</g>
<g transform="rotate(-30.0, 495.38424871130593, 1422.9481339178928)">
<rect rx="6.0" ry="6.0" x="467.73224871130594" y="1396.9481339178928" width="55.303999999999995" height="52.0" class="trans key"/>
<text x="495.38424871130593" y="1422.9481339178928" class="trans tap">▽</text>
</g>
<g transform="rotate(-15.0, 556.1489540768639, 1397.7133808511558)">
<rect rx="6.0" ry="6.0" x="528.4969540768639" y="1371.7133808511558" width="55.303999999999995" height="52.0" class="trans key"/>
<text x="556.1489540768639" y="1397.7133808511558" class="trans tap">▽</text>
</g>
<rect rx="6.0" ry="6.0" x="594.072" y="1362.522133917893" width="55.303999999999995" height="52.0" class="held key"/>
<rect rx="6.0" ry="6.0" x="189.54403410329635" y="1184.479110508525" width="28.0" height="26.0" class="combo"/>
<text x="203.54403410329635" y="1197.479110508525" class="combo tap">ESC</text>
<rect rx="6.0" ry="6.0" x="191.47596589670366" y="1240.3931573272603" width="28.0" height="26.0" class="combo"/>
<text x="205.47596589670366" y="1253.3931573272603" class="combo tap">TAB</text>
<path d="M237.08803410329637,1323.2271105085251 l-39.92348110301929,1.949055311705874" class="combo"/>
<path d="M237.08803410329637,1323.2271105085251 l39.92348110301926,-1.9490553117057212" class="combo"/>
<rect rx="6.0" ry="6.0" x="223.08803410329637" y="1310.2271105085251" width="28.0" height="26.0" class="combo"/>
<text x="237.08803410329637" y="1323.2271105085251" class="combo tap">Cut</text>
<rect rx="6.0" ry="6.0" x="193.43603410329638" y="1296.3391105085252" width="28.0" height="26.0" class="combo"/>
<text x="207.43603410329638" y="1309.3391105085252" class="combo tap">Copy</text>
<rect rx="6.0" ry="6.0" x="253.10399999999998" y="1293.4261339178927" width="28.0" height="26.0" class="combo"/>
<text x="267.104" y="1306.4261339178927" class="combo tap">Paste</text>
<rect rx="6.0" ry="6.0" x="620.8000000000001" y="1181.4261339178927" width="28.0" height="26.0" class="combo"/>
<text x="634.8000000000001" y="1194.4261339178927" class="combo tap">BSPC</text>
<rect rx="6.0" ry="6.0" x="684.2480341032964" y="1184.5051573272603" width="28.0" height="26.0" class="combo"/>
<text x="698.2480341032964" y="1197.5051573272603" class="combo tap">DEL</text>
<rect rx="6.0" ry="6.0" x="620.8000000000001" y="1237.4261339178927" width="28.0" height="26.0" class="combo"/>
<text x="634.8000000000001" y="1250.4261339178927" class="combo tap">&lt;</text>
<rect rx="6.0" ry="6.0" x="682.2879658967038" y="1240.4231105085253" width="28.0" height="26.0" class="combo"/>
<text x="696.2879658967038" y="1253.4231105085253" class="combo tap">&gt;</text>
<rect rx="6.0" ry="6.0" x="620.8000000000001" y="1293.4261339178927" width="28.0" height="26.0" class="combo"/>
<text x="634.8000000000001" y="1306.4261339178927" class="combo tap">[</text>
<rect rx="6.0" ry="6.0" x="680.3560341032965" y="1296.3651573272605" width="28.0" height="26.0" class="combo"/>
<text x="694.3560341032965" y="1309.3651573272605" class="combo tap">]</text>
<rect rx="6.0" ry="6.0" x="157.56799999999998" y="1229.3341339178928" width="28.0" height="26.0" class="combo"/>
<text x="171.56799999999998" y="1242.3341339178928" class="combo tap">@</text>
<rect rx="6.0" ry="6.0" x="223.452" y="1195.5381339178928" width="28.0" height="26.0" class="combo"/>
<text x="237.452" y="1208.5381339178928" class="combo tap">#</text>
<rect rx="6.0" ry="6.0" x="282.756" y="1223.3141339178928" width="28.0" height="26.0" class="combo"/>
<text x="296.756" y="1236.3141339178928" class="combo tap">$</text>
<rect rx="6.0" ry="6.0" x="342.00399999999996" y="1232.2741339178929" width="28.0" height="26.0" class="combo"/>
<text x="356.00399999999996" y="1245.2741339178929" class="combo tap">%</text>
<rect rx="6.0" ry="6.0" x="161.46" y="1285.1941339178927" width="28.0" height="26.0" class="combo"/>
<text x="175.46" y="1298.1941339178927" class="combo tap">`</text>
<rect rx="6.0" ry="6.0" x="223.452" y="1251.5381339178928" width="28.0" height="26.0" class="combo"/>
<text x="237.452" y="1264.5381339178928" class="combo tap">\</text>
<rect rx="6.0" ry="6.0" x="282.756" y="1279.3141339178928" width="28.0" height="26.0" class="combo"/>
<text x="296.756" y="1292.3141339178928" class="combo tap">=</text>
<rect rx="6.0" ry="6.0" x="342.00399999999996" y="1288.2741339178929" width="28.0" height="26.0" class="combo"/>
<text x="356.00399999999996" y="1301.2741339178929" class="combo tap">~</text>
<rect rx="6.0" ry="6.0" x="531.844" y="1232.4141339178927" width="28.0" height="26.0" class="combo"/>
<text x="545.844" y="1245.4141339178927" class="combo tap">^</text>
<rect rx="6.0" ry="6.0" x="591.148" y="1223.3141339178928" width="28.0" height="26.0" class="combo"/>
<text x="605.148" y="1236.3141339178928" class="combo tap">+</text>
<rect rx="6.0" ry="6.0" x="650.4520000000001" y="1195.5381339178928" width="28.0" height="26.0" class="combo"/>
<text x="664.4520000000001" y="1208.5381339178928" class="combo tap">*</text>
<rect rx="6.0" ry="6.0" x="716.0840000000001" y="1229.3901339178929" width="28.0" height="26.0" class="combo"/>
<text x="730.0840000000001" y="1242.3901339178929" class="combo tap">&amp;</text>
<rect rx="6.0" ry="6.0" x="531.844" y="1288.5541339178928" width="28.0" height="26.0" class="combo"/>
<text x="545.844" y="1301.5541339178928" class="combo tap">_</text>
<rect rx="6.0" ry="6.0" x="591.148" y="1279.3141339178928" width="28.0" height="26.0" class="combo"/>
<text x="605.148" y="1292.3141339178928" class="combo tap">-</text>
<rect rx="6.0" ry="6.0" x="650.4520000000001" y="1251.5381339178928" width="28.0" height="26.0" class="combo"/>
<text x="664.4520000000001" y="1264.5381339178928" class="combo tap">/</text>
<rect rx="6.0" ry="6.0" x="712.192" y="1285.2501339178928" width="28.0" height="26.0" class="combo"/>
<text x="726.192" y="1298.2501339178928" class="combo tap">|</text>
</g>
<g class="layer-sys">
<text x="30.0" y="1490.050845223857" class="label">sys:</text>
<g transform="rotate(-10.0, 103.10757461708434, 1631.1099830748824)">
<rect rx="6.0" ry="6.0" x="75.45557461708434" y="1605.1099830748824" width="55.303999999999995" height="52.0" class="key"/>
<text x="103.10757461708434" y="1631.1099830748824" class="tap" style="font-size: 70%">&amp;sys_reset</text>
</g>
<g transform="rotate(-4.0, 169.6360682065927, 1579.932798405122)">
<rect rx="6.0" ry="6.0" x="141.98406820659272" y="1553.932798405122" width="55.303999999999995" height="52.0" class="key"/>
<text x="169.6360682065927" y="1579.932798405122" class="tap">
<tspan x="169.6360682065927" dy="-0.6em">BT</tspan><tspan x="169.6360682065927" dy="1.2em">CLR</tspan></text>
</g>
<rect rx="6.0" ry="6.0" x="209.8" y="1520.050845223857" width="55.303999999999995" height="52.0" class="key"/>
<text x="237.452" y="1546.050845223857" class="tap">
<tspan x="237.452" dy="-0.6em">OUT</tspan><tspan x="237.452" dy="1.2em">TOG</tspan></text>
<rect rx="6.0" ry="6.0" x="269.104" y="1547.8268452238572" width="55.303999999999995" height="52.0" class="trans key"/>
<text x="296.756" y="1573.8268452238572" class="trans tap">▽</text>
<rect rx="6.0" ry="6.0" x="328.352" y="1556.7868452238572" width="55.303999999999995" height="52.0" class="trans key"/>
<text x="356.00399999999996" y="1582.7868452238572" class="trans tap">▽</text>
<rect rx="6.0" ry="6.0" x="518.192" y="1556.7868452238572" width="55.303999999999995" height="52.0" class="trans key"/>
<text x="545.844" y="1582.7868452238572" class="trans tap">▽</text>
<rect rx="6.0" ry="6.0" x="577.496" y="1547.8268452238572" width="55.303999999999995" height="52.0" class="key"/>
<text x="605.148" y="1573.8268452238572" class="tap">F7</text>
<rect rx="6.0" ry="6.0" x="636.8000000000001" y="1520.050845223857" width="55.303999999999995" height="52.0" class="key"/>
<text x="664.4520000000001" y="1546.050845223857" class="tap">F8</text>
<g transform="rotate(4.0, 732.0440682065927, 1579.9848920425923)">
<rect rx="6.0" ry="6.0" x="704.3920682065926" y="1553.9848920425923" width="55.303999999999995" height="52.0" class="key"/>
<text x="732.0440682065927" y="1579.9848920425923" class="tap">F9</text>
</g>
<g transform="rotate(10.0, 798.7964253829157, 1631.1659830748824)">
<rect rx="6.0" ry="6.0" x="771.1444253829156" y="1605.1659830748824" width="55.303999999999995" height="52.0" class="key"/>
<text x="798.7964253829157" y="1631.1659830748824" class="tap">F12</text>
</g>
<g transform="rotate(-10.0, 112.85157461708434, 1686.2699830748825)">
<rect rx="6.0" ry="6.0" x="85.19957461708434" y="1660.2699830748825" width="55.303999999999995" height="52.0" class="key"/>
<text x="112.85157461708434" y="1686.2699830748825" class="tap" style="font-size: 64%">&amp;bootloader</text>
</g>
<g transform="rotate(-4.0, 173.49993179340728, 1635.7608920425923)">
<rect rx="6.0" ry="6.0" x="145.8479317934073" y="1609.7608920425923" width="55.303999999999995" height="52.0" class="key"/>
<text x="173.49993179340728" y="1635.7608920425923" class="tap">
<tspan x="173.49993179340728" dy="-0.6em">BT</tspan><tspan x="173.49993179340728" dy="1.2em">NXT</tspan></text>
</g>
<rect rx="6.0" ry="6.0" x="209.8" y="1576.050845223857" width="55.303999999999995" height="52.0" class="trans key"/>
<text x="237.452" y="1602.050845223857" class="trans tap">▽</text>
<rect rx="6.0" ry="6.0" x="269.104" y="1603.8268452238572" width="55.303999999999995" height="52.0" class="trans key"/>
<text x="296.756" y="1629.8268452238572" class="trans tap">▽</text>
<rect rx="6.0" ry="6.0" x="328.352" y="1612.7868452238572" width="55.303999999999995" height="52.0" class="trans key"/>
<text x="356.00399999999996" y="1638.7868452238572" class="trans tap">▽</text>
<rect rx="6.0" ry="6.0" x="518.192" y="1613.0668452238572" width="55.303999999999995" height="52.0" class="trans key"/>
<text x="545.844" y="1639.0668452238572" class="trans tap">▽</text>
<rect rx="6.0" ry="6.0" x="577.496" y="1603.8268452238572" width="55.303999999999995" height="52.0" class="key"/>
<text x="605.148" y="1629.8268452238572" class="tap">F4</text>
<rect rx="6.0" ry="6.0" x="636.8000000000001" y="1576.050845223857" width="55.303999999999995" height="52.0" class="key"/>
<text x="664.4520000000001" y="1602.050845223857" class="tap">F5</text>
<g transform="rotate(4.0, 728.1239317934073, 1635.8207984051219)">
<rect rx="6.0" ry="6.0" x="700.4719317934073" y="1609.8207984051219" width="55.303999999999995" height="52.0" class="key"/>
<text x="728.1239317934073" y="1635.8207984051219" class="tap">F6</text>
</g>
<g transform="rotate(10.0, 789.1084253829157, 1686.3259830748825)">
<rect rx="6.0" ry="6.0" x="761.4564253829157" y="1660.3259830748825" width="55.303999999999995" height="52.0" class="key"/>
<text x="789.1084253829157" y="1686.3259830748825" class="tap">F11</text>
</g>
<g transform="rotate(-10.0, 59.651574617084336, 1726.9819830748825)">
<rect rx="6.0" ry="6.0" x="31.99957461708434" y="1700.9819830748825" width="55.303999999999995" height="52.0" class="trans key"/>
<text x="59.651574617084336" y="1726.9819830748825" class="trans tap">▽</text>
</g>
<g transform="rotate(-10.0, 122.59642538291565, 1741.4397073728317)">
<rect rx="6.0" ry="6.0" x="94.94442538291565" y="1715.4397073728317" width="55.303999999999995" height="52.0" class="trans key"/>
<text x="122.59642538291565" y="1741.4397073728317" class="trans tap">▽</text>
</g>
<g transform="rotate(-4.0, 177.42006820659273, 1691.652798405122)">
<rect rx="6.0" ry="6.0" x="149.76806820659274" y="1665.652798405122" width="55.303999999999995" height="52.0" class="key"/>
<text x="177.42006820659273" y="1691.652798405122" class="tap">
<tspan x="177.42006820659273" dy="-0.6em">BT</tspan><tspan x="177.42006820659273" dy="1.2em">PRV</tspan></text>
</g>
<rect rx="6.0" ry="6.0" x="209.8" y="1632.050845223857" width="55.303999999999995" height="52.0" class="trans key"/>
<text x="237.452" y="1658.050845223857" class="trans tap">▽</text>
<rect rx="6.0" ry="6.0" x="269.104" y="1659.8268452238572" width="55.303999999999995" height="52.0" class="trans key"/>
<text x="296.756" y="1685.8268452238572" class="trans tap">▽</text>
<rect rx="6.0" ry="6.0" x="328.352" y="1668.7868452238572" width="55.303999999999995" height="52.0" class="trans key"/>
<text x="356.00399999999996" y="1694.7868452238572" class="trans tap">▽</text>
<rect rx="6.0" ry="6.0" x="518.192" y="1669.0668452238572" width="55.303999999999995" height="52.0" class="trans key"/>
<text x="545.844" y="1695.0668452238572" class="trans tap">▽</text>
<rect rx="6.0" ry="6.0" x="577.496" y="1659.8268452238572" width="55.303999999999995" height="52.0" class="key"/>
<text x="605.148" y="1685.8268452238572" class="tap">F1</text>
<rect rx="6.0" ry="6.0" x="636.8000000000001" y="1632.050845223857" width="55.303999999999995" height="52.0" class="key"/>
<text x="664.4520000000001" y="1658.050845223857" class="tap">F2</text>
<g transform="rotate(4.0, 724.2600682065927, 1691.7048920425923)">
<rect rx="6.0" ry="6.0" x="696.6080682065926" y="1665.7048920425923" width="55.303999999999995" height="52.0" class="key"/>
<text x="724.2600682065927" y="1691.7048920425923" class="tap">F3</text>
</g>
<g transform="rotate(10.0, 779.3644253829157, 1741.4859830748824)">
<rect rx="6.0" ry="6.0" x="751.7124253829156" y="1715.4859830748824" width="55.303999999999995" height="52.0" class="key"/>
<text x="779.3644253829157" y="1741.4859830748824" class="tap">F10</text>
</g>
<g transform="rotate(10.0, 842.1404253829157, 1726.9819830748825)">
<rect rx="6.0" ry="6.0" x="814.4884253829157" y="1700.9819830748825" width="55.303999999999995" height="52.0" class="trans key"/>
<text x="842.1404253829157" y="1726.9819830748825" class="trans tap">▽</text>
</g>
<rect rx="6.0" ry="6.0" x="252.52800000000002" y="1728.0348452238572" width="55.303999999999995" height="52.0" class="held key"/>
<g transform="rotate(15.0, 345.8110459231361, 1763.22609215712)">
<rect rx="6.0" ry="6.0" x="318.1590459231361" y="1737.22609215712" width="55.303999999999995" height="52.0" class="trans key"/>
<text x="345.8110459231361" y="1763.22609215712" class="trans tap">▽</text>
</g>
<g transform="rotate(30.0, 406.56824871130596, 1788.488845223857)">
<rect rx="6.0" ry="6.0" x="378.91624871130597" y="1762.488845223857" width="55.303999999999995" height="52.0" class="trans key"/>
<text x="406.56824871130596" y="1788.488845223857" class="trans tap">▽</text>
</g>
<g transform="rotate(-30.0, 495.38424871130593, 1788.4608452238572)">
<rect rx="6.0" ry="6.0" x="467.73224871130594" y="1762.4608452238572" width="55.303999999999995" height="52.0" class="trans key"/>
<text x="495.38424871130593" y="1788.4608452238572" class="trans tap">▽</text>
</g>
<g transform="rotate(-15.0, 556.1489540768639, 1763.22609215712)">
<rect rx="6.0" ry="6.0" x="528.4969540768639" y="1737.22609215712" width="55.303999999999995" height="52.0" class="trans key"/>
<text x="556.1489540768639" y="1763.22609215712" class="trans tap">▽</text>
</g>
<rect rx="6.0" ry="6.0" x="594.072" y="1728.0348452238572" width="55.303999999999995" height="52.0" class="held key"/>
</g>
</svg>
